Input #0, mov,mp4,m4a,3gp,3g2,mj2, from 'https://commondatastorage.googleapis.com/gtv-videos-bucket/sample/ForBiggerBlazes.mp4':
  Metadata:
    major_brand     : mp42
    minor_version   : 0
    compatible_brands: isommp42
    creation_time   : 2013-11-21T04:34:28.000000Z
  Duration: 00:00:15.02, start: 0.000000, bitrate: 1330 kb/s
  Stream #0:0(und): Video: h264 (High) (avc1 / 0x31637661), yuv420p, 1280x720, 1135 kb/s, 23.98 fps, 23.98 tbr, 48k tbn, 47.95 tbc (default)
    Metadata:
      handler_name    : VideoHandler
      vendor_id       : [0][0][0][0]
  Stream #0:1(und): Audio: aac (LC) (mp4a / 0x6134706D), 44100 Hz, stereo, fltp, 192 kb/s (default)
    Metadata:
      creation_time   : 2013-11-21T04:34:29.000000Z
      handler_name    : IsoMedia File Produced by Google, 5-11-2011
      vendor_id       : [0][0][0][0]
Stream mapping:
  Stream #0:0 -> #0:0 (h264 (native) -> h264 (h264_nvenc))
Press [q] to stop, [?] for help
Output #0, mp4, to './test_results/temp_tests_gpu/test_test_50_3/output.mp4':
  Metadata:
    major_brand     : mp42
    minor_version   : 0
    compatible_brands: isommp42
    encoder         : Lavf58.76.100
  Stream #0:0(und): Video: h264 (Main) (avc1 / 0x31637661), yuv420p(progressive), 1280x720, q=2-31, 23.98 fps, 24k tbn (default)
    Metadata:
      handler_name    : VideoHandler
      vendor_id       : [0][0][0][0]
      encoder         : Lavc58.134.100 h264_nvenc
    Side data:
      cpb: bitrate max/min/avg: 3000000/0/0 buffer size: 4000000 vbv_delay: N/A
frame=    1 fps=0.0 q=0.0 size=       0kB time=00:00:00.00 bitrate=N/A speed=   0x    frame=  156 fps=0.0 q=29.0 size=    1024kB time=00:00:06.38 bitrate=1314.6kbits/s speed=  12x    frame=  388 fps=376 q=23.0 size=    1536kB time=00:00:16.05 bitrate= 783.6kbits/s speed=15.6x    frame=  579 fps=378 q=23.0 size=    3072kB time=00:00:24.02 bitrate=1047.5kbits/s speed=15.7x    frame=  735 fps=361 q=23.0 size=    3328kB time=00:00:30.53 bitrate= 893.0kbits/s speed=  15x    frame=  892 fps=343 q=26.0 size=    4352kB time=00:00:37.07 bitrate= 961.5kbits/s speed=14.2x    frame= 1063 fps=343 q=23.0 size=    4864kB time=00:00:44.21 bitrate= 901.3kbits/s speed=14.2x    frame= 1177 fps=327 q=24.0 size=    5376kB time=00:00:48.96 bitrate= 899.4kbits/s speed=13.6x    frame= 1424 fps=347 q=23.0 size=    6656kB time=00:00:59.26 bitrate= 920.0kbits/s speed=14.4x    [mp4 @ 0x6427f86b60c0] Starting second pass: moving the moov atom to the beginning of the file
frame= 1439 fps=342 q=23.0 Lsize=    6736kB time=00:00:59.97 bitrate= 920.0kbits/s speed=14.2x    
video:6729kB audio:0kB subtitle:0kB other streams:0kB global headers:0kB muxing overhead: 0.098521%
